<svg width="30" height="28" fill="none" xmlns="http://www.w3.org/2000/svg"><g filter="url(#filter0_d_167_570)"><path d="M14.182.86c.3-.92 1.601-.92 1.901 0l1.751 5.374a1 1 0 00.951.69h5.661c.97 0 1.372 1.241.587 1.81l-4.575 3.315a1 1 0 00-.364 1.12l1.748 5.366c.3.92-.753 1.688-1.537 1.12l-4.586-3.323a1 1 0 00-1.173 0L9.96 19.654c-.784.569-1.837-.198-1.537-1.12l1.748-5.366a1 1 0 00-.364-1.12L5.232 8.735c-.785-.569-.382-1.81.587-1.81h5.66a1 1 0 00.952-.69L14.18.86z" fill="#E5E5E5"/></g><defs><filter id="filter0_d_167_570" x=".817" y=".17" width="28.631" height="27.68" filterUnits="userSpaceOnUse" color-interpolation-filters="sRGB"><feFlood flood-opacity="0" result="BackgroundImageFix"/><feColorMatrix in="SourceAlpha" values="0 0 0 0 0 0 0 0 0 0 0 0 0 0 0 0 0 0 127 0" result="hardAlpha"/><feOffset dy="4"/><feGaussianBlur stdDeviation="2"/><feComposite in2="hardAlpha" operator="out"/><feColorMatrix values="0 0 0 0 0 0 0 0 0 0 0 0 0 0 0 0 0 0 0.25 0"/><feBlend in2="BackgroundImageFix" result="effect1_dropShadow_167_570"/><feBlend in="SourceGraphic" in2="effect1_dropShadow_167_570" result="shape"/></filter></defs></svg>