<svg width="30" height="28" viewBox="0 0 30 28" fill="none" xmlns="http://www.w3.org/2000/svg">
<g filter="url(#filter0_d_167_570)">
<path d="M14.1817 0.85958C14.4816 -0.0606967 15.7835 -0.0606959 16.0833 0.859581L17.8344 6.23398C17.9685 6.64561 18.3523 6.92418 18.7852 6.92418H24.446C25.4154 6.92418 25.8177 8.16521 25.0327 8.73398L20.4578 12.0486C20.1064 12.3033 19.9593 12.7555 20.0937 13.1682L21.8423 18.5349C22.1423 19.4557 21.089 20.2227 20.3048 19.6544L15.7192 16.3321C15.3692 16.0784 14.8958 16.0784 14.5458 16.3321L9.96025 19.6544C9.176 20.2227 8.12271 19.4557 8.42273 18.5348L10.1713 13.1682C10.3058 12.7555 10.1587 12.3033 9.80722 12.0486L5.23234 8.73398C4.44734 8.16521 4.84967 6.92418 5.81906 6.92418H11.4798C11.9127 6.92418 12.2965 6.64561 12.4306 6.23398L14.1817 0.85958Z" fill="#E5E5E5"/>
</g>
<defs>
<filter id="filter0_d_167_570" x="0.817139" y="0.169922" width="28.6309" height="27.6797" filterUnits="userSpaceOnUse" color-interpolation-filters="sRGB">
<feFlood flood-opacity="0" result="BackgroundImageFix"/>
<feColorMatrix in="SourceAlpha" type="matrix" values="0 0 0 0 0 0 0 0 0 0 0 0 0 0 0 0 0 0 127 0" result="hardAlpha"/>
<feOffset dy="4"/>
<feGaussianBlur stdDeviation="2"/>
<feComposite in2="hardAlpha" operator="out"/>
<feColorMatrix type="matrix" values="0 0 0 0 0 0 0 0 0 0 0 0 0 0 0 0 0 0 0.25 0"/>
<feBlend mode="normal" in2="BackgroundImageFix" result="effect1_dropShadow_167_570"/>
<feBlend mode="normal" in="SourceGraphic" in2="effect1_dropShadow_167_570" result="shape"/>
</filter>
</defs>
</svg>
